HIERARCHY
ROOT mixamorig:Hips
{
	OFFSET 0.000000 201.639420 0.000000
	CHANNELS 6 Xposition Yposition Zposition Xrotation Yrotation Zrotation
	JOINT mixamorig:Spine
	{
		OFFSET 0.006200 19.524994 -2.481800
		CHANNELS 3 Xrotation Yrotation Zrotation
		JOINT mixamorig:Spine1
		{
			OFFSET -0.000900 22.835007 -2.825400
			CHANNELS 3 Xrotation Yrotation Zrotation
			JOINT mixamorig:Spine2
			{
				OFFSET -0.020600 26.552490 -3.193300
				CHANNELS 3 Xrotation Yrotation Zrotation
				JOINT mixamorig:Neck
				{
					OFFSET -0.060000 30.701813 1.352200
					CHANNELS 3 Xrotation Yrotation Zrotation
					JOINT mixamorig:Head
					{
						OFFSET -0.087200 22.547607 3.670900
						CHANNELS 3 Xrotation Yrotation Zrotation
						JOINT mixamorig:HeadTop_End
						{
							OFFSET -0.830600 40.355194 7.893500
							CHANNELS 3 Xrotation Yrotation Zrotation
							End Site
							{
								OFFSET 0.000000 30.592346 0.000000
							}
						}
						JOINT mixamorig:RightEye
						{
							OFFSET -6.302100 18.118591 16.197100
							CHANNELS 3 Xrotation Yrotation Zrotation
							End Site
							{
								OFFSET 0.000000 30.592346 0.000000
							}
						}
						JOINT mixamorig:LeftEye
						{
							OFFSET 6.741500 18.382690 16.401899
							CHANNELS 3 Xrotation Yrotation Zrotation
							End Site
							{
								OFFSET 0.000000 30.592346 0.000000
							}
						}
					}
				}
				JOINT mixamorig:LeftShoulder
				{
					OFFSET 11.924900 18.230499 1.425400
					CHANNELS 3 Xrotation Yrotation Zrotation
					JOINT mixamorig:LeftArm
					{
						OFFSET 25.435989 -0.697632 -5.229300
						CHANNELS 3 Xrotation Yrotation Zrotation
						JOINT mixamorig:LeftForeArm
						{
							OFFSET 54.684776 0.000000 0.000000
							CHANNELS 3 Xrotation Yrotation Zrotation
							JOINT mixamorig:LeftHand
							{
								OFFSET 55.098175 0.000000 0.000000
								CHANNELS 3 Xrotation Yrotation Zrotation
								JOINT mixamorig:LeftHandMiddle1
								{
									OFFSET 23.369751 0.000000 0.000000
									CHANNELS 3 Xrotation Yrotation Zrotation
									JOINT mixamorig:LeftHandMiddle2
									{
										OFFSET 6.378677 0.000000 0.000000
										CHANNELS 3 Xrotation Yrotation Zrotation
										JOINT mixamorig:LeftHandMiddle3
										{
											OFFSET 6.148331 0.000000 0.000000
											CHANNELS 3 Xrotation Yrotation Zrotation
											JOINT mixamorig:LeftHandMiddle4
											{
												OFFSET 6.582504 0.000000 0.000000
												CHANNELS 3 Xrotation Yrotation Zrotation
												End Site
												{
													OFFSET -1.168900 6.395691 1.028606
												}
											}
										}
									}
								}
								JOINT mixamorig:LeftHandThumb1
								{
									OFFSET 7.235672 -3.848206 5.434273
									CHANNELS 3 Xrotation Yrotation Zrotation
									JOINT mixamorig:LeftHandThumb2
									{
										OFFSET 6.568451 -3.792297 3.792300
										CHANNELS 3 Xrotation Yrotation Zrotation
										JOINT mixamorig:LeftHandThumb3
										{
											OFFSET 6.063080 -3.500519 3.500518
											CHANNELS 3 Xrotation Yrotation Zrotation
											JOINT mixamorig:LeftHandThumb4
											{
												OFFSET 4.793182 -2.767334 2.767349
												CHANNELS 3 Xrotation Yrotation Zrotation
												End Site
												{
													OFFSET 0.101639 6.054260 1.275483
												}
											}
										}
									}
								}
								JOINT mixamorig:LeftHandIndex1
								{
									OFFSET 23.101074 -0.309540 4.992809
									CHANNELS 3 Xrotation Yrotation Zrotation
									JOINT mixamorig:LeftHandIndex2
									{
										OFFSET 6.226883 0.000000 0.000000
										CHANNELS 3 Xrotation Yrotation Zrotation
										JOINT mixamorig:LeftHandIndex3
										{
											OFFSET 6.094330 0.000000 0.000000
											CHANNELS 3 Xrotation Yrotation Zrotation
											JOINT mixamorig:LeftHandIndex4
											{
												OFFSET 5.482605 0.000000 0.000000
												CHANNELS 3 Xrotation Yrotation Zrotation
												End Site
												{
													OFFSET -1.427902 5.233032 0.797164
												}
											}
										}
									}
								}
								JOINT mixamorig:LeftHandRing1
								{
									OFFSET 22.299240 0.021149 -3.964172
									CHANNELS 3 Xrotation Yrotation Zrotation
									JOINT mixamorig:LeftHandRing2
									{
										OFFSET 6.321869 0.000000 0.000000
										CHANNELS 3 Xrotation Yrotation Zrotation
										JOINT mixamorig:LeftHandRing3
										{
											OFFSET 5.899796 0.000000 0.000000
											CHANNELS 3 Xrotation Yrotation Zrotation
											JOINT mixamorig:LeftHandRing4
											{
												OFFSET 6.517899 0.000000 0.000000
												CHANNELS 3 Xrotation Yrotation Zrotation
												End Site
												{
													OFFSET -1.637299 6.232208 0.980890
												}
											}
										}
									}
								}
								JOINT mixamorig:LeftHandPinky1
								{
									OFFSET 20.463791 -0.302338 -8.562233
									CHANNELS 3 Xrotation Yrotation Zrotation
									JOINT mixamorig:LeftHandPinky2
									{
										OFFSET 6.908646 0.000000 0.000000
										CHANNELS 3 Xrotation Yrotation Zrotation
										JOINT mixamorig:LeftHandPinky3
										{
											OFFSET 4.622849 0.000000 0.000000
											CHANNELS 3 Xrotation Yrotation Zrotation
											JOINT mixamorig:LeftHandPinky4
											{
												OFFSET 5.216080 0.000000 0.000000
												CHANNELS 3 Xrotation Yrotation Zrotation
												End Site
												{
													OFFSET -0.606308 5.116241 0.814926
												}
											}
										}
									}
								}
							}
						}
					}
				}
				JOINT mixamorig:RightShoulder
				{
					OFFSET -12.001300 18.284088 1.348900
					CHANNELS 3 Xrotation Yrotation Zrotation
					JOINT mixamorig:RightArm
					{
						OFFSET -25.308500 -0.751312 -5.164599
						CHANNELS 3 Xrotation Yrotation Zrotation
						JOINT mixamorig:RightForeArm
						{
							OFFSET -54.684429 0.000000 0.000000
							CHANNELS 3 Xrotation Yrotation Zrotation
							JOINT mixamorig:RightHand
							{
								OFFSET -55.150291 0.000000 0.000000
								CHANNELS 3 Xrotation Yrotation Zrotation
								JOINT mixamorig:RightHandMiddle1
								{
									OFFSET -23.317566 0.000000 0.000000
									CHANNELS 3 Xrotation Yrotation Zrotation
									JOINT mixamorig:RightHandMiddle2
									{
										OFFSET -6.378403 0.000000 0.000000
										CHANNELS 3 Xrotation Yrotation Zrotation
										JOINT mixamorig:RightHandMiddle3
										{
											OFFSET -6.148193 0.000000 0.000000
											CHANNELS 3 Xrotation Yrotation Zrotation
											JOINT mixamorig:RightHandMiddle4
											{
												OFFSET -6.583389 0.000000 0.000000
												CHANNELS 3 Xrotation Yrotation Zrotation
												End Site
												{
													OFFSET 1.171692 6.395905 1.029786
												}
											}
										}
									}
								}
								JOINT mixamorig:RightHandThumb1
								{
									OFFSET -7.190521 -3.860474 5.435846
									CHANNELS 3 Xrotation Yrotation Zrotation
									JOINT mixamorig:RightHandThumb2
									{
										OFFSET -6.567429 -3.791718 3.791708
										CHANNELS 3 Xrotation Yrotation Zrotation
										JOINT mixamorig:RightHandThumb3
										{
											OFFSET -6.062469 -3.500153 3.500166
											CHANNELS 3 Xrotation Yrotation Zrotation
											JOINT mixamorig:RightHandThumb4
											{
												OFFSET -4.792618 -2.767029 2.767022
												CHANNELS 3 Xrotation Yrotation Zrotation
												End Site
												{
													OFFSET -0.100327 6.053253 1.276754
												}
											}
										}
									}
								}
								JOINT mixamorig:RightHandIndex1
								{
									OFFSET -23.048981 -0.310791 4.992554
									CHANNELS 3 Xrotation Yrotation Zrotation
									JOINT mixamorig:RightHandIndex2
									{
										OFFSET -6.227539 0.000000 0.000000
										CHANNELS 3 Xrotation Yrotation Zrotation
										JOINT mixamorig:RightHandIndex3
										{
											OFFSET -6.095047 0.000000 0.000000
											CHANNELS 3 Xrotation Yrotation Zrotation
											JOINT mixamorig:RightHandIndex4
											{
												OFFSET -5.484772 0.000000 0.000000
												CHANNELS 3 Xrotation Yrotation Zrotation
												End Site
												{
													OFFSET 1.420593 5.237305 0.797056
												}
											}
										}
									}
								}
								JOINT mixamorig:RightHandRing1
								{
									OFFSET -22.246323 0.020569 -3.963762
									CHANNELS 3 Xrotation Yrotation Zrotation
									JOINT mixamorig:RightHandRing2
									{
										OFFSET -6.322128 0.000000 0.000000
										CHANNELS 3 Xrotation Yrotation Zrotation
										JOINT mixamorig:RightHandRing3
										{
											OFFSET -5.900024 0.000000 0.000000
											CHANNELS 3 Xrotation Yrotation Zrotation
											JOINT mixamorig:RightHandRing4
											{
												OFFSET -6.518356 0.000000 0.000000
												CHANNELS 3 Xrotation Yrotation Zrotation
												End Site
												{
													OFFSET 1.636398 6.232697 0.982186
												}
											}
										}
									}
								}
								JOINT mixamorig:RightHandPinky1
								{
									OFFSET -20.411011 -0.303314 -8.561701
									CHANNELS 3 Xrotation Yrotation Zrotation
									JOINT mixamorig:RightHandPinky2
									{
										OFFSET -6.907349 0.000000 0.000000
										CHANNELS 3 Xrotation Yrotation Zrotation
										JOINT mixamorig:RightHandPinky3
										{
											OFFSET -4.623840 0.000000 0.000000
											CHANNELS 3 Xrotation Yrotation Zrotation
											JOINT mixamorig:RightHandPinky4
											{
												OFFSET -5.218353 0.000000 0.000000
												CHANNELS 3 Xrotation Yrotation Zrotation
												End Site
												{
													OFFSET 0.602097 5.118835 0.816273
												}
											}
										}
									}
								}
							}
						}
					}
				}
			}
		}
	}
	JOINT mixamorig:LeftUpLeg
	{
		OFFSET 18.168400 -13.561905 -0.039000
		CHANNELS 3 Xrotation Yrotation Zrotation
		JOINT mixamorig:LeftLeg
		{
			OFFSET 0.577358 -80.825211 -3.695000
			CHANNELS 3 Xrotation Yrotation Zrotation
			JOINT mixamorig:LeftFoot
			{
				OFFSET -0.577356 -83.370262 -6.520700
				CHANNELS 3 Xrotation Yrotation Zrotation
				JOINT mixamorig:LeftToeBase
				{
					OFFSET 0.750401 -20.798306 25.135401
					CHANNELS 3 Xrotation Yrotation Zrotation
					JOINT mixamorig:LeftToe_End
					{
						OFFSET -0.000500 0.001200 19.917799
						CHANNELS 3 Xrotation Yrotation Zrotation
						End Site
						{
							OFFSET 0.000000 19.917805 0.000000
						}
					}
				}
			}
		}
	}
	JOINT mixamorig:RightUpLeg
	{
		OFFSET -18.162500 -13.585098 -0.041000
		CHANNELS 3 Xrotation Yrotation Zrotation
		JOINT mixamorig:RightLeg
		{
			OFFSET -0.595024 -80.945297 -3.631900
			CHANNELS 3 Xrotation Yrotation Zrotation
			JOINT mixamorig:RightFoot
			{
				OFFSET 0.595024 -83.218193 -6.561200
				CHANNELS 3 Xrotation Yrotation Zrotation
				JOINT mixamorig:RightToeBase
				{
					OFFSET -0.753601 -20.807106 25.115000
					CHANNELS 3 Xrotation Yrotation Zrotation
					JOINT mixamorig:RightToe_End
					{
						OFFSET 0.000299 0.001700 19.918200
						CHANNELS 3 Xrotation Yrotation Zrotation
						End Site
						{
							OFFSET 0.000000 19.918203 0.000000
						}
					}
				}
			}
		}
	}
}
MOTION
Frames: 4
Frame Time: 0.033333
6.681791 176.483856 565.288147 0.551719 -3.827139 0.058032 -0.450464 -1.370990 -1.136795 -0.912334 -2.797968 -1.824930 -0.912334 -2.797971 -1.824930 0.338055 1.220958 3.570413 17.874226 1.925580 0.676435 -0.000000 0.000000 0.000000 -0.000000 0.000000 0.000000 -0.000000 0.000000 0.000000 0.739059 0.409849 -6.083079 18.321441 -18.635189 -32.882286 1.453610 -91.250221 1.498706 -95.525687 -10.191798 -6.035616 0.666767 4.868242 -39.760355 -1.326573 -3.252987 -44.009689 -0.000015 0.000002 0.000003 -0.000001 0.000001 -0.000000 -38.963770 -1.539541 -7.941522 -3.281547 8.528194 -3.162031 0.000005 -0.000007 0.000004 0.000002 0.000002 0.000001 -4.180537 11.986084 -43.840993 0.270307 0.700583 -43.178065 -0.000005 -0.000004 -0.000003 -0.000003 0.000003 0.000003 0.651628 2.000681 -42.448967 -1.320929 -3.346578 -43.355968 -0.000014 -0.000006 0.000003 -0.000001 -0.000001 0.000001 3.246798 -8.215473 -40.096216 -0.192222 -1.713224 -14.523962 0.000001 0.000002 0.000005 -0.000001 -0.000002 -0.000001 0.607697 5.019524 0.449541 -2.833732 -5.863647 77.986342 5.127702 90.234298 -5.171726 -34.745586 3.340073 21.079767 -5.408983 1.456827 37.680118 -0.637783 2.013168 34.591237 -0.000007 -0.000001 0.000000 0.000001 0.000001 0.000000 -28.188075 -11.462763 24.806100 -11.227843 -9.466525 -18.400364 0.000010 0.000011 0.000005 -0.000001 0.000002 -0.000003 -9.567693 -3.215429 42.827345 0.364515 -1.160478 31.048435 0.000003 0.000004 -0.000002 0.000001 -0.000000 -0.000002 -3.728793 5.189461 33.784930 -0.814179 2.808035 26.989142 0.000014 -0.000004 0.000007 -0.000001 -0.000003 0.000001 -2.759702 9.317784 28.677000 -0.279965 2.357732 13.621947 -0.000014 -0.000005 -0.000001 -0.000003 0.000001 -0.000005 -9.396444 11.351961 -3.113219 50.553468 -0.460874 -1.824480 -36.786422 -11.170032 7.347310 -5.188930 -0.038366 0.318484 0.000000 -0.000000 -0.000000 -48.728226 7.002918 1.667826 78.272738 1.379497 2.634395 -8.637584 1.270975 1.606680 -12.925030 -0.039891 -0.353719 0.000000 0.000000 -0.000000 
7.131782 180.465088 584.500488 5.605172 -4.162708 0.005641 -1.291074 -1.432322 -0.753954 -2.596584 -2.945963 -1.379756 -2.596584 -2.945963 -1.379756 -0.370435 1.308738 3.781559 18.469134 3.026447 -0.355821 -0.000003 -0.000000 0.000000 -0.000003 -0.000000 0.000000 -0.000003 -0.000000 0.000000 0.801234 0.924618 -6.959693 21.343467 -19.500441 -30.691657 3.620933 -91.451322 3.658007 -95.444538 -13.401668 -4.892407 0.720303 4.540600 -40.346604 -1.251054 -3.173052 -42.662567 -0.000014 -0.000000 0.000001 -0.000004 -0.000002 -0.000001 -38.991252 -1.590737 -7.956393 -3.454934 8.608414 -3.039817 0.000004 -0.000009 0.000002 0.000000 0.000001 -0.000001 -3.931820 12.463718 -44.955369 0.262739 0.693558 -42.584102 -0.000003 -0.000009 -0.000000 -0.000001 0.000000 0.000001 0.651661 2.345318 -42.276047 -1.352049 -3.379203 -43.887022 -0.000013 0.000001 0.000006 0.000000 0.000001 0.000001 3.491161 -8.522388 -38.827990 -0.181548 -1.672815 -14.165973 0.000000 -0.000001 0.000003 -0.000001 -0.000001 -0.000001 0.609121 5.671725 1.150578 -2.787626 -6.495444 76.663040 2.520080 91.544520 -2.560249 -34.860206 3.603905 21.480112 -4.987682 1.166535 36.905657 -0.627982 1.998879 34.311445 -0.000009 -0.000001 0.000000 0.000001 0.000000 -0.000002 -29.346898 -12.530513 24.728302 -16.382320 -11.123901 -21.304776 0.000011 0.000007 0.000008 0.000000 -0.000001 -0.000001 -9.326413 -3.208513 41.082642 0.364079 -1.159861 31.028340 0.000001 0.000006 -0.000005 0.000001 -0.000003 -0.000002 -3.320399 4.768095 33.396558 -0.802769 2.785563 26.755417 0.000015 -0.000006 0.000005 -0.000004 0.000002 0.000003 -2.365887 8.931136 28.374073 -0.277493 2.347744 13.562400 -0.000014 -0.000007 -0.000001 -0.000003 0.000002 -0.000001 -1.245443 11.087530 -5.038755 35.845932 0.796583 -1.247948 -29.658956 -11.548238 7.092607 -11.837721 -0.087844 0.642812 0.000000 -0.000000 0.000000 -54.373896 7.127293 2.337691 61.184514 0.817731 2.162702 -18.156825 -5.188689 4.950539 -14.586917 -0.020882 -0.431359 -0.000003 -0.000000 0.000000 
7.088301 181.873245 604.177551 9.131691 -4.486768 0.547440 -1.924589 -1.246641 -0.676413 -3.867737 -2.792636 -1.415934 -3.867737 -2.792641 -1.415934 -0.740800 1.266835 4.056896 18.420991 3.635398 -1.485960 0.000000 0.000000 -0.000000 0.000000 0.000000 -0.000000 0.000000 0.000000 -0.000000 0.853819 1.134548 -7.677710 21.288595 -19.022560 -30.694238 3.608433 -92.167932 3.635317 -94.889940 -12.421633 -3.734065 0.932929 3.297277 -40.267869 -1.156279 -3.067119 -40.921511 -0.000014 -0.000003 0.000002 0.000002 0.000005 0.000001 -39.016919 -1.641527 -8.001175 -3.331156 8.553098 -3.126607 0.000005 -0.000012 0.000000 0.000000 0.000002 0.000001 -3.775145 12.776051 -45.568700 0.253139 0.684428 -41.821720 -0.000003 -0.000005 -0.000000 -0.000001 -0.000000 -0.000003 0.643428 2.199291 -42.576018 -1.357317 -3.384604 -43.975780 -0.000015 -0.000001 0.000005 -0.000003 -0.000000 -0.000001 3.530454 -8.380575 -38.771944 -0.180623 -1.669167 -14.133885 -0.000001 -0.000002 0.000001 0.000000 -0.000001 0.000001 0.581096 6.144373 2.753902 -2.350708 -7.954798 74.304132 1.262121 94.518009 -1.300357 -38.438269 2.455509 18.838114 -4.173100 0.490519 36.257130 -0.611495 1.974426 33.835155 -0.000005 -0.000003 0.000003 0.000002 0.000004 -0.000001 -30.496709 -13.487058 23.608108 -20.343327 -12.459448 -23.534494 0.000014 0.000011 0.000008 -0.000002 -0.000001 -0.000000 -8.731200 -3.470328 39.142974 0.358706 -1.151684 30.768971 0.000004 0.000002 0.000001 0.000001 0.000001 -0.000003 -2.476886 3.741076 33.307517 -0.786157 2.752372 26.411324 0.000012 -0.000003 0.000005 -0.000001 0.000002 0.000004 -1.577167 8.003088 28.277984 -0.273145 2.329932 13.456028 -0.000014 -0.000008 -0.000002 0.000003 0.000000 0.000001 5.721000 10.236918 -6.885051 25.544199 0.682424 -0.892300 -15.988033 -11.790787 7.671867 -25.563274 -0.308320 1.282963 0.000000 0.000000 0.000000 -55.806832 7.809894 2.538714 44.529972 0.163275 1.616141 -18.465220 -1.314173 2.383570 -16.073190 -0.001971 -0.500299 -0.000005 -0.000000 0.000000 
6.029500 180.639175 623.286560 8.742339 -4.387484 -0.018410 -1.749104 -1.036697 -0.603825 -3.516376 -2.602848 -1.356372 -3.516379 -2.602849 -1.356373 -0.482896 1.149325 4.412330 17.748725 3.964218 -2.324808 -0.000001 0.000000 0.000000 -0.000001 0.000000 0.000000 -0.000001 0.000000 0.000000 0.856673 1.036339 -7.648047 20.440671 -19.300016 -29.329573 2.274872 -93.212657 2.309607 -96.442660 -10.315913 -3.647527 1.090181 2.433472 -40.066846 -1.126935 -3.032927 -40.369635 -0.000013 0.000002 0.000003 -0.000001 -0.000001 -0.000001 -39.017172 -1.639110 -8.004283 -3.393416 8.582814 -3.082562 0.000006 -0.000004 0.000004 0.000001 0.000000 0.000001 -3.835037 12.711657 -45.252124 0.249858 0.681260 -41.559007 0.000002 -0.000004 -0.000003 -0.000001 -0.000000 -0.000003 0.634700 2.044934 -42.850978 -1.343314 -3.370091 -43.738288 -0.000014 -0.000003 0.000004 -0.000000 0.000002 0.000002 3.452582 -7.706950 -39.470686 -0.194569 -1.721988 -14.601879 -0.000001 0.000000 0.000002 -0.000001 -0.000004 -0.000001 0.520071 6.339464 4.922418 -2.298199 -9.761797 71.353743 0.540316 98.464437 -0.585642 -45.350776 0.600902 14.252131 -2.806102 -0.694221 35.236601 -0.590424 1.942670 33.219154 -0.000007 -0.000005 -0.000001 0.000002 0.000003 -0.000001 -31.355377 -14.102201 22.185313 -23.406232 -13.526652 -25.265495 0.000015 0.000010 0.000008 0.000000 0.000004 -0.000001 -7.614548 -4.180326 37.117420 0.349604 -1.137623 30.325493 -0.000001 0.000003 -0.000000 0.000002 -0.000001 0.000000 -0.959407 1.934965 32.741895 -0.768093 2.715747 26.032810 0.000014 -0.000002 0.000002 0.000001 0.000003 -0.000001 -0.017811 6.213241 27.748212 -0.263154 2.288708 13.209951 -0.000016 -0.000013 -0.000001 0.000001 -0.000001 -0.000001 1.795761 9.190505 -4.385801 38.350775 0.124008 -1.400050 6.180099 -10.152139 3.970813 -45.006323 -1.409276 7.728250 -0.000000 0.000000 0.000000 -55.233373 5.936777 2.942264 32.579353 -0.242519 1.278735 -2.353937 2.862530 2.745212 -17.393058 0.016292 -0.561102 -0.000003 0.000001 0.000001 
